<svg width="113" height="36" viewBox="0 0 113 36" fill="none" xmlns="http://www.w3.org/2000/svg">
<path d="M0 4.5C0 2.01472 2.00761 0 4.48413 0H31.398C33.8745 0 35.8821 2.01472 35.8821 4.5V31.5C35.8821 33.9853 33.8745 36 31.398 36H4.48413C2.00761 36 0 33.9853 0 31.5V4.5Z" fill="#2B2B2B"/>
<path d="M2.58922 10.3909H4.85224L10.1734 23.4307H10.3569L15.678 10.3909H17.9411V26.1H16.1673V14.1648H16.0144L11.1214 26.1H9.40886L4.51585 14.1648H4.36294V26.1H2.58922V10.3909Z" fill="white"/>
<path d="M33.191 15.3H31.2949C31.1828 14.7528 30.9865 14.2722 30.7062 13.858C30.431 13.4438 30.0946 13.096 29.697 12.8148C29.3046 12.5284 28.8688 12.3136 28.3897 12.1705C27.9106 12.0273 27.4111 11.9557 26.8912 11.9557C25.9432 11.9557 25.0843 12.196 24.3147 12.6767C23.5502 13.1574 22.9411 13.8656 22.4875 14.8014C22.039 15.7372 21.8147 16.8852 21.8147 18.2455C21.8147 19.6057 22.039 20.7537 22.4875 21.6895C22.9411 22.6253 23.5502 23.3335 24.3147 23.8142C25.0843 24.2949 25.9432 24.5352 26.8912 24.5352C27.4111 24.5352 27.9106 24.4636 28.3897 24.3205C28.8688 24.1773 29.3046 23.9651 29.697 23.6838C30.0946 23.3974 30.431 23.0472 30.7062 22.633C30.9865 22.2136 31.1828 21.733 31.2949 21.1909H33.191C33.0482 21.9937 32.7883 22.7122 32.4111 23.3463C32.034 23.9804 31.565 24.5199 31.0044 24.9648C30.4437 25.4045 29.8143 25.7395 29.116 25.9696C28.4228 26.1997 27.6812 26.3148 26.8912 26.3148C25.5558 26.3148 24.3682 25.9875 23.3285 25.333C22.2887 24.6784 21.4707 23.7477 20.8743 22.5409C20.278 21.3341 19.9798 19.9023 19.9798 18.2455C19.9798 16.5886 20.278 15.1568 20.8743 13.95C21.4707 12.7432 22.2887 11.8125 23.3285 11.158C24.3682 10.5034 25.5558 10.1761 26.8912 10.1761C27.6812 10.1761 28.4228 10.2912 29.116 10.5213C29.8143 10.7514 30.4437 11.0889 31.0044 11.5338C31.565 11.9736 32.034 12.5105 32.4111 13.1446C32.7883 13.7736 33.0482 14.492 33.191 15.3Z" fill="white"/>
<path d="M48.4409 10.4727H50.7039L56.025 23.5125H56.2085L61.5297 10.4727H63.7927V18.3273V26.1818H62.019V14.2466H61.8661L56.9731 26.1818H55.2605L50.3675 14.2466H50.2146V26.1818H48.4409V10.4727Z" fill="#2B2B2B"/>
<path d="M68.5118 30.6C68.206 30.6 67.9333 30.5744 67.6937 30.5233C67.4542 30.4773 67.2885 30.4312 67.1968 30.3852L67.6555 28.7898C68.0938 28.9023 68.4812 28.9432 68.8176 28.9125C69.154 28.8818 69.4521 28.731 69.7121 28.4599C69.9771 28.194 70.2192 27.7619 70.4384 27.1636L70.7748 26.2432L66.4322 14.4H68.3895L71.6311 23.7886H71.7534L74.995 14.4H76.9522L71.9675 27.9C71.7432 28.5085 71.4654 29.0122 71.1341 29.4111C70.8028 29.8151 70.418 30.1142 69.9797 30.3085C69.5464 30.5028 69.0571 30.6 68.5118 30.6Z" fill="#2B2B2B"/>
<path d="M92.1779 15.3818H90.2819C90.1697 14.8347 89.9735 14.354 89.6932 13.9398C89.418 13.5256 89.0816 13.1778 88.684 12.8966C88.2915 12.6102 87.8557 12.3955 87.3766 12.2523C86.8975 12.1091 86.398 12.0375 85.8782 12.0375C84.9301 12.0375 84.0713 12.2778 83.3017 12.7585C82.5372 13.2392 81.9281 13.9474 81.4744 14.8832C81.0259 15.819 80.8017 16.967 80.8017 18.3273C80.8017 19.6875 81.0259 20.8355 81.4744 21.7713C81.9281 22.7071 82.5372 23.4153 83.3017 23.896C84.0713 24.3767 84.9301 24.617 85.8782 24.617C86.398 24.617 86.8975 24.5455 87.3766 24.4023C87.8557 24.2591 88.2915 24.0469 88.684 23.7656C89.0816 23.4793 89.418 23.129 89.6932 22.7148C89.9735 22.2955 90.1697 21.8148 90.2819 21.2727H92.1779C92.0352 22.0756 91.7753 22.794 91.3981 23.4281C91.0209 24.0622 90.552 24.6017 89.9914 25.0466C89.4307 25.4864 88.8012 25.8213 88.103 26.0514C87.4098 26.2815 86.6682 26.3966 85.8782 26.3966C84.5428 26.3966 83.3552 26.0693 82.3154 25.4148C81.2757 24.7602 80.4576 23.8295 79.8613 22.6227C79.2649 21.4159 78.9668 19.9841 78.9668 18.3273C78.9668 16.6705 79.2649 15.2386 79.8613 14.0318C80.4576 12.825 81.2757 11.8943 82.3154 11.2398C83.3552 10.5852 84.5428 10.258 85.8782 10.258C86.6682 10.258 87.4098 10.373 88.103 10.6031C88.8012 10.8332 89.4307 11.1707 89.9914 11.6156C90.552 12.0554 91.0209 12.5923 91.3981 13.2264C91.7753 13.8554 92.0352 14.5739 92.1779 15.3818Z" fill="#2B2B2B"/>
<path d="M98.6452 26.458C97.9011 26.458 97.2258 26.3173 96.6192 26.0361C96.0127 25.7497 95.531 25.3381 95.1742 24.8011C94.8175 24.2591 94.6391 23.6045 94.6391 22.8375C94.6391 22.1625 94.7716 21.6153 95.0366 21.196C95.3017 20.7716 95.6559 20.4392 96.0993 20.1989C96.5428 19.9585 97.0321 19.7795 97.5672 19.6619C98.1075 19.5392 98.6503 19.442 99.1957 19.3705C99.9093 19.2784 100.488 19.2094 100.931 19.1634C101.38 19.1122 101.706 19.0278 101.91 18.9102C102.119 18.7926 102.223 18.5881 102.223 18.2966V18.2352C102.223 17.4784 102.017 16.8903 101.604 16.471C101.196 16.0517 100.577 15.842 99.7462 15.842C98.8848 15.842 98.2094 16.0312 97.7201 16.4097C97.2308 16.7881 96.8868 17.192 96.688 17.6216L94.9755 17.008C95.2813 16.292 95.689 15.7347 96.1987 15.3358C96.7135 14.9318 97.2742 14.6506 97.8807 14.492C98.4923 14.3284 99.0938 14.2466 99.685 14.2466C100.062 14.2466 100.495 14.2926 100.985 14.3847C101.479 14.4716 101.956 14.6531 102.414 14.9293C102.878 15.2054 103.263 15.6222 103.569 16.1795C103.875 16.7369 104.028 17.4835 104.028 18.4193V26.1818H102.223V24.5864H102.132C102.009 24.842 101.805 25.1156 101.52 25.4071C101.234 25.6986 100.855 25.9466 100.381 26.1511C99.9067 26.3557 99.3282 26.458 98.6452 26.458ZM98.9205 24.8318C99.634 24.8318 100.235 24.6912 100.725 24.4099C101.219 24.1287 101.591 23.7656 101.841 23.3207C102.096 22.8759 102.223 22.408 102.223 21.917V20.2602C102.147 20.3523 101.979 20.4366 101.719 20.5134C101.464 20.5849 101.168 20.6489 100.832 20.7051C100.5 20.7562 100.177 20.8023 99.8608 20.8432C99.5499 20.879 99.2976 20.9097 99.104 20.9352C98.635 20.9966 98.1967 21.0963 97.789 21.2344C97.3863 21.3673 97.0601 21.5693 96.8103 21.8403C96.5657 22.1063 96.4434 22.4693 96.4434 22.9295C96.4434 23.5585 96.6753 24.0341 97.1391 24.3562C97.608 24.6733 98.2018 24.8318 98.9205 24.8318Z" fill="#2B2B2B"/>
<path d="M107.157 26.1818V14.4H108.9V16.1795H109.022C109.237 15.5966 109.624 15.1236 110.185 14.7605C110.745 14.3974 111.377 14.2159 112.081 14.2159C112.213 14.2159 112.379 14.2185 112.578 14.2236C112.776 14.2287 112.898 14.2298 113 14.24V16.081C112.939 16.0656 112.827 16.0491 112.608 16.0185C112.394 15.9827 112.167 15.9648 111.928 15.9648C111.357 15.9648 110.847 16.0849 110.399 16.3253C109.955 16.5605 109.604 16.8878 109.344 17.3071C109.089 17.7213 108.961 18.1943 108.961 18.7261V26.1818H107.157Z" fill="#2B2B2B"/>
</svg>
